<svg width="30" height="30" xmlns="http://www.w3.org/2000/svg">

 <g>
  <title>background</title>
  <rect fill="none" id="canvas_background" height="402" width="582" y="-1" x="-1"/>
 </g>
 <g>
  <title>Layer 1</title>
  <rect rx="2" fill-opacity="0" id="svg_2" height="23.022598" width="22.17514" y="3.453391" x="3.947742" stroke-width="1.5" stroke="#b6b6b6" fill="#0fffff"/>
  <path fill="#0f0f00" fill-opacity="0" id="svg_1" d="m24,4l-18,0c-1.105,0 -2,0.895 -2,2l0,18c0,1.105 0.895,2 2,2l18,0c1.105,0 2,-0.895 2,-2l0,-18c0,-1.105 -0.896,-2 -2,-2zm-2.293,7.707l-7.56,7.56c-0.188,0.188 -0.442,0.293 -0.707,0.293s-0.52,-0.105 -0.707,-0.293l-3.453,-3.453c-0.391,-0.391 -0.391,-1.023 0,-1.414s1.023,-0.391 1.414,0l2.746,2.746l6.853,-6.853c0.391,-0.391 1.023,-0.391 1.414,0s0.391,1.023 0,1.414z"/>
 </g>
</svg>
