<svg width="48" height="48" xmlns="http://www.w3.org/2000/svg">

 <g>
  <title>background</title>
  <rect fill="none" id="canvas_background" height="402" width="582" y="-1" x="-1"/>
 </g>
 <g>
  <title>Layer 1</title>
  <rect id="svg_15" height="34.55167" width="23.068929" y="9.000024" x="12.465535" stroke-width="2" stroke="#000" fill="none"/>
  <path stroke-width="0" id="svg_9" d="m24,39.879307c-0.553,0 -1,-0.447 -1,-1l0,-25c0,-0.553 0.447,-1 1,-1s1,0.447 1,1l0,25c0,0.553 -0.447,1 -1,1z"/>
  <path stroke="null" stroke-width="0" id="svg_11" d="m32,38.620688c-0.553,0 -1,-0.397333 -1,-0.888889l0,-22.222226c0,-0.491556 0.447,-0.888889 1,-0.888889s1,0.397333 1,0.888889l0,22.222226c0,0.491556 -0.447,0.888889 -1,0.888889z"/>
  <path stroke="null" stroke-width="0" id="svg_14" d="m16.06899,38.620687c-0.553,0 -1,-0.39733 -1,-0.88889l0,-22.22222c0,-0.49156 0.447,-0.88889 1,-0.88889s1,0.39733 1,0.88889l0,22.22222c0,0.49156 -0.447,0.88889 -1,0.88889z"/>
  <path transform="rotate(90 24,5.586184501647952) " stroke-width="0" id="svg_16" d="m24,19.086239c-0.553,0 -1,-0.447 -1,-1l0,-25c0,-0.553 0.447,-1 1,-1s1,0.447 1,1l0,25c0,0.553 -0.447,1 -1,1z"/>
  <rect id="svg_17" height="3.517236" width="6.827575" y="2.448309" x="20.586213" fill-opacity="null" stroke-opacity="null" stroke-width="0" stroke="null" fill="null"/>
 </g>
</svg>
